<svg xmlns="http://www.w3.org/2000/svg" width="122.803" height="88.377" viewBox="0 0 122.803 88.377"><path d="M101.742,15.516c-7.394-5.844-15.905-9.527-24.8-12.439.7-1.56,1.151-1.824,2.567-1.708a54.5,54.5,0,0,1,27.348,10.376,5.017,5.017,0,0,1,1.478,1.849A143.767,143.767,0,0,1,120.44,49.708a125.163,125.163,0,0,1,2.362,22.68,4.483,4.483,0,0,1-.874,2.6,36.138,36.138,0,0,1-20.482,13.119c-3.095.78-6.325,1.041-9.489,1.554a1.99,1.99,0,0,1-2.076-.855c-1.72-2.2-3.507-4.353-5.262-6.526-.236-.293-.437-.61-.777-1.088,7.332-2.3,13.713-5.866,18.657-12.128C75.269,84.7,48.292,84.182,21.121,69.123c4.658,6.026,10.851,9.492,17.994,11.864-.937,1.189-1.724,2.2-2.526,3.2-1.246,1.554-2.463,3.133-3.784,4.623a2.374,2.374,0,0,1-1.607.821,43.289,43.289,0,0,1-19.815-5.514A33.375,33.375,0,0,1,.831,74.891,4.448,4.448,0,0,1,0,72.378,133.17,133.17,0,0,1,2.875,47.456a147.828,147.828,0,0,1,9.911-30.251c.616-1.359,1.242-2.717,1.953-4.029a4.422,4.422,0,0,1,1.271-1.437A55.676,55.676,0,0,1,38.916,1.91c1.617-.28,3.258-.425,4.9-.569.956-.085,1.211.157,1.686,1.312-9.583,2.941-18.711,6.813-26.659,13.1,27.64-13.084,55.233-13.691,82.9-.236M52.526,51.887c.881-7.687-7.583-13.364-14.534-10.568-6.806,2.736-9.159,11.9-4.655,18.138a10.227,10.227,0,0,0,17.38-.777,12.793,12.793,0,0,0,1.809-6.794m27.58,12.04a10.334,10.334,0,0,0,5.866-1.843c5.561-3.919,6.558-12.26,2.114-17.73a10.272,10.272,0,0,0-16,.157,12.482,12.482,0,0,0-.771,14.3,10.247,10.247,0,0,0,8.794,5.111" transform="translate(0 -1.325)" fill="#000"/></svg>