<svg xmlns="http://www.w3.org/2000/svg" xmlns:xlink="http://www.w3.org/1999/xlink" width="172.95" height="185.349" viewBox="0 0 172.95 185.349"><defs><clipPath id="a"><rect width="172.95" height="185.349" fill="none"/></clipPath></defs><g clip-path="url(#a)"><path d="M168.338,68.5c-.072-1.072-.106-2.144-.082-3.219a8.675,8.675,0,0,0-.053-1.184,29.645,29.645,0,0,1-.142-3.384c0-.453-.009-.9-.015-1.356-.005-.4-.012-.788-.017-1.182a1.92,1.92,0,0,0-.066-1.317,1.1,1.1,0,0,1,.04-.5,3.592,3.592,0,0,0,.114-1,2.993,2.993,0,0,1,.165-1.164,1.637,1.637,0,0,0,.062-.666,4.94,4.94,0,0,0-.277-2,1.877,1.877,0,0,1-.09-.665c-.084-1.24-.172-2.48-.134-3.725.013-.45-.016-.9-.023-1.354.264-.513-.082-.99-.085-1.489-.006-.678-.029-1.356-.089-2.031a7.016,7.016,0,0,1,.1-2.187,4.937,4.937,0,0,0,.07-1.181c-.02-.96-.079-1.918-.1-2.877a7.066,7.066,0,0,1,.084-2.356,2.1,2.1,0,0,0,.022-.674c-.05-1.411-.091-2.823-.16-4.233a32.809,32.809,0,0,1,.124-5.057,4.782,4.782,0,0,0,.007-.508c-.028-.961-.051-1.921-.091-2.881a9.827,9.827,0,0,1,.118-3.027,2.574,2.574,0,0,0,.035-.676c0-.565,0-1.131-.03-1.695a4.661,4.661,0,0,1,.109-1.511,1.181,1.181,0,0,0,.012-.666,1.991,1.991,0,0,1-.064-1.482,5.159,5.159,0,0,1-.016-1.166,9.264,9.264,0,0,0,.009-1.354,6.314,6.314,0,0,1,.142-1.847,1.494,1.494,0,0,0-.009-.668A2.1,2.1,0,0,1,168,5.558a17.7,17.7,0,0,0,.266-2.687,1.857,1.857,0,0,0-.129-.453,1.877,1.877,0,0,0-.946-.359,23.435,23.435,0,0,1-3.791-.194,7.45,7.45,0,0,0-2.612.325,1.994,1.994,0,0,1-.652.092c-.55.037-1.1.058-1.654.1a5.275,5.275,0,0,0-.819.114c-.266.063-.517.2-.783.26-.318.073-.645.1-.91.139a2.631,2.631,0,0,0-.488.946c.034.973.058,1.933.1,2.891.287,6.323.458,12.65.8,18.969.015.283.019.566.027.848.069,2.315.134,4.631.209,6.946a9.971,9.971,0,0,1-.088,2.865,1.981,1.981,0,0,0-.017.506c.024,1.413.039,2.825.079,4.236a7.8,7.8,0,0,1-.3,2.656c-.04-.013-.1-.013-.116-.039a16.186,16.186,0,0,1-.793-1.471A22.265,22.265,0,0,0,153.8,39.1a11.306,11.306,0,0,1-.962-1.96,3.625,3.625,0,0,0-.339-.762c-.31-.467-.584-.957-.89-1.426a12.6,12.6,0,0,1-.687-1.713,2.5,2.5,0,0,0-.254-.433,12.4,12.4,0,0,1-1.134-2.058c-.387-.809-.808-1.6-1.213-2.4a3.809,3.809,0,0,1-.785-1.473,23.787,23.787,0,0,0-1.283-2.924,7.109,7.109,0,0,1-.773-2.039c-.488-1.252-.88-2.545-1.472-3.755a8.394,8.394,0,0,1-.318-.778c-.51-1.365-1-2.741-1.537-4.1-.247-.625-.6-1.2-.874-1.82-.292-.666-.486-1.381-.817-2.024-.592-1.151-1.055-2.356-1.538-3.553-.295-.728-.58-1.462-.888-2.184a.714.714,0,0,0-.664-.425c-.164-.009-.33,0-.494.011-1.987.087-3.972.181-5.957.261-.606.025-1.214.016-1.821.022-.44,0-.868-.271-1.306-.111s-.868-.042-1.3-.024c-.773.033-1.545.046-2.318.047a4.576,4.576,0,0,1-1.149-.078,5.859,5.859,0,0,0-1.475-.163,6.816,6.816,0,0,1-2.134-.15,2,2,0,0,0-.658-.041,11.4,11.4,0,0,1-2.963-.127c-1.325.026-2.649.045-3.974.088-.141,0-.279.147-.4.213-.174.638-.026,1.27-.221,1.876a7.127,7.127,0,0,0-.071,1.854,1.771,1.771,0,0,1-.044.5,5.453,5.453,0,0,0-.191,1.841,3.245,3.245,0,0,1-.117.832,3.369,3.369,0,0,0-.1,1.007c.017.734.051,1.468.07,2.2.008.339.012.68-.011,1.017-.019.274-.084.546-.132.842.123.108.228.265.37.314a24.306,24.306,0,0,0,2.911.571,1.4,1.4,0,0,0,.33,0c.607-.018,1.215-.011,1.82-.064.49-.043.974-.158,1.483-.246a5.447,5.447,0,0,0,3.072-.119,2.182,2.182,0,0,1,1.3-.063,5.153,5.153,0,0,0,1.13.01,6.843,6.843,0,0,0,.97-.164,7.69,7.69,0,0,1,1.141.168c.275.015.55,0,.826,0,.385-.005.77-.014,1.081-.019.221.12.327.239.322.427a15.236,15.236,0,0,0-.175,1.674c.066.845.078,1.693.131,2.54a3.2,3.2,0,0,0,.153.825,2.4,2.4,0,0,1,.03,1.327,4.22,4.22,0,0,0,.1,2.34,4,4,0,0,1,.145,2.167,9.022,9.022,0,0,0-.105,2.019q.153,4.659.311,9.317a3.635,3.635,0,0,1-.082,1.179,1.132,1.132,0,0,0,.011.494,9.8,9.8,0,0,1,.211.987c.085,1.127.16,2.254.2,3.383.1,2.88.174,5.761.266,8.64a9.329,9.329,0,0,1-.122,2.859.728.728,0,0,0-.006.169,8.206,8.206,0,0,1-.028.846c-.045.333-.137.659-.2.969a3.813,3.813,0,0,0,.108.521,4.253,4.253,0,0,1,.154,2.174,13.6,13.6,0,0,0-.131,2.021q-.012.678-.023,1.356a5.978,5.978,0,0,0-.14,2.181,6.726,6.726,0,0,1-.065,1.519,5.723,5.723,0,0,0-.1,1.508c.024.79.031,1.582.05,2.372a9.247,9.247,0,0,0,.056,1.014,1.3,1.3,0,0,0,.208.4,2.207,2.207,0,0,0,.368.054c.442-.01.885-.012,1.322-.054.46-.045.846.245,1.29.253l.166,0a4.059,4.059,0,0,1,1.31.148c.424.158.86-.167,1.3.051a1.583,1.583,0,0,0,.654.047c1.823.013,3.639-.143,5.456-.279.054,0,.107-.027.161-.036a.485.485,0,0,0,.323-.346c.014-.223.039-.448.031-.67-.056-1.3-.123-2.594-.178-3.892a5.874,5.874,0,0,1,.084-1.174,5.641,5.641,0,0,0-.156-2.841,1.578,1.578,0,0,1-.048-1,5.68,5.68,0,0,0,.148-1.171,2.493,2.493,0,0,1,.129-.657,3.409,3.409,0,0,0,.17-1.5c-.037-.45-.1-.9-.113-1.351-.019-.564,0-1.128,0-1.693a5.842,5.842,0,0,0,.185-2.347,20.558,20.558,0,0,1,.239-2.685,5.857,5.857,0,0,1,.225-1.053c-.021-.492-.04-.886-.052-1.28s-.037-.792-.022-1.187c.013-.377-.1-.78.171-1.149.124.113.3.2.353.338a20.887,20.887,0,0,0,1.537,2.986,8.868,8.868,0,0,1,.67,1.358,17.6,17.6,0,0,0,1.076,2.281,13.857,13.857,0,0,1,.921,2.165A11.522,11.522,0,0,0,147.1,58.6a12.883,12.883,0,0,1,.9,1.991,13.094,13.094,0,0,0,.535,1.232c.388.746.795,1.478,1.115,2.262.338.829.733,1.635,1.048,2.475a2.635,2.635,0,0,0,.171.474,19.522,19.522,0,0,1,1.208,2.589,12.674,12.674,0,0,1,.9,2.533,2.136,2.136,0,0,0,.446.892,5.45,5.45,0,0,0,2.256.4,4.685,4.685,0,0,1,1.15.067,5.188,5.188,0,0,0,1.311.129,1.42,1.42,0,0,1,.494.035,6.928,6.928,0,0,0,2.622.2,2.128,2.128,0,0,1,.659.033,6.378,6.378,0,0,0,1.972.116,24.109,24.109,0,0,1,3.624.1,1.263,1.263,0,0,0,.684-1.249c-.005-.112-.016-.225-.021-.339a11.054,11.054,0,0,1,.135-3.032,3.566,3.566,0,0,0,.019-1.012" fill="#000"/><path d="M16.725,76.088a4.659,4.659,0,0,0-.083-1.883A3.838,3.838,0,0,1,16.52,73c.064-.988-.031-1.97-.027-2.954,0-1.333.011-2.665.009-4a11.455,11.455,0,0,0-.047-1.216c-.038-.343-.132-.677-.22-1.109a3.861,3.861,0,0,0,.22-1.622c.007-1.912.033-3.824.042-5.738.012-3.071.016-6.143.031-9.215,0-.344.046-.689.073-1.053.154-.082.292-.211.437-.22.381-.023.768.026,1.151.006q1.812-.094,3.623-.024a3.814,3.814,0,0,0,1.309-.09,9.155,9.155,0,0,1,2.114-.275,1.884,1.884,0,0,0,.643-.116,2.977,2.977,0,0,1,1.9-.321,2.019,2.019,0,0,0,.648-.081c.324-.048.647-.121.973-.139.6-.034,1.208-.021,1.812-.056a5.779,5.779,0,0,0,2.112-.254,2.53,2.53,0,0,1,.815-.079c.273-.02.548-.025.821-.052a.834.834,0,0,0,.648-.692c0-.057.021-.114.019-.172-.023-.636-.007-1.279-.091-1.907a4.408,4.408,0,0,1,.03-1.023,4.967,4.967,0,0,0-.243-1.182,4.285,4.285,0,0,1-.026-.519q-.025-1.044-.047-2.086a2.891,2.891,0,0,0-.024-.693A22.484,22.484,0,0,1,34.89,33.2a2.165,2.165,0,0,1,0-.845c.067-.284-.142-.549-.044-.847a1.9,1.9,0,0,0,.019-.86c-.036-.275-.03-.556-.043-.841-.144-.1-.28-.194-.427-.3a6.288,6.288,0,0,0-1.791.2,2.208,2.208,0,0,1-.644.1c-.659.036-1.317.056-1.976.086a4.477,4.477,0,0,0-1.461.214,2.192,2.192,0,0,1-.649.095,5.941,5.941,0,0,0-1.783.29,2.631,2.631,0,0,1-.816.089c-.549.017-1.1,0-1.646.027a2.339,2.339,0,0,0-.809.114,3.5,3.5,0,0,1-1.455.227,3.614,3.614,0,0,0-1.782.222,1.147,1.147,0,0,1-.487.051c-.766.005-1.534,0-2.336,0l-.216-.244c-.013-.3-.038-.586-.039-.874q-.016-4.434-.029-8.867c0-.811.026-1.622.05-2.433a1.942,1.942,0,0,1,.112-.4c.122-.106.286-.251.409-.36a2.323,2.323,0,0,1,.387-.064c.439,0,.878.033,1.317.015a8.647,8.647,0,0,0,3.094-.265,1.3,1.3,0,0,1,.489-.052c.384,0,.77,0,1.152.038.325.032.646.12.964.182.381-.074.754-.162,1.133-.217.325-.047.659-.036.984-.091.377-.062.744-.187,1.12-.25a5.124,5.124,0,0,1,.823-.034c.164,0,.327.039.492.04a13.735,13.735,0,0,0,4.412-.3,2.9,2.9,0,0,1,.82-.072c.493-.011.988.016,1.482-.008a7.107,7.107,0,0,0,1.468-.151,5.253,5.253,0,0,1,2.832.06,5.015,5.015,0,0,1,1.878-.274,8.786,8.786,0,0,1,2.776.226,4,4,0,0,0,2.116-.036,3.491,3.491,0,0,1,.81-.118c.384,0,.768,0,1.153,0a12.9,12.9,0,0,1,3.113.185,3.01,3.01,0,0,0,.822.036c.214-.012.427-.121.64-.118.27.006.54.121.811.123,1.427,0,2.852.141,4.281.057.439-.025.882.006,1.317-.04s.859-.155,1.286-.236a3.362,3.362,0,0,0,1.457.256q3.543,0,7.084.008a2.515,2.515,0,0,0,.816-.069,5.7,5.7,0,0,1,1.949-.261c.232,0,.455-.35.413-.639a1.321,1.321,0,0,1-.056-.507,6.9,6.9,0,0,0,.072-2.924,19.584,19.584,0,0,1-.183-3.107,7.885,7.885,0,0,0,.02-.869c-.122-1.562,0-3.127-.054-4.691-.029-.809.018-1.621.029-2.4a5.946,5.946,0,0,0,.276-.665.484.484,0,0,0-.114-.478A4.9,4.9,0,0,0,72.316,0a4.982,4.982,0,0,0-1.122.066,6.555,6.555,0,0,1-1.958.208C67.314.23,65.393.292,63.471.318c-.878.012-1.757,0-2.636.014A5.512,5.512,0,0,0,59.2.514a3.574,3.574,0,0,1-.978.1q-1.236.041-2.471.051c-1.318.006-2.637,0-3.956,0a5.306,5.306,0,0,0-2.027.263A11.8,11.8,0,0,0,48.387.717C47.179.68,45.972.682,44.763.68a3.133,3.133,0,0,0-.981.083A7.191,7.191,0,0,1,41.66.978c-.879.029-1.756.065-2.635.1a9.346,9.346,0,0,1-2.944.213,6.461,6.461,0,0,1-1.8-.124c-.652.069-1.3.157-1.958.2-.492.032-.988,0-1.482.008-1.153.011-2.306.022-3.459.04a1.568,1.568,0,0,0-.488.067,6.237,6.237,0,0,1-2.447.208,11.949,11.949,0,0,0-3.114.193,6.27,6.27,0,0,0-.807-.137c-.6-.027-1.21-.048-1.813-.023a15.659,15.659,0,0,1-2.3-.036,4.425,4.425,0,0,0-1.954.192,2.486,2.486,0,0,1-1.3.08,7.5,7.5,0,0,1-.794-.235c-.885.407-1.854.246-2.8.584a3.462,3.462,0,0,0-1.574-.245c-.934-.008-1.868.008-2.8-.008C4.473,2.043,3.76,2,3.048,1.967c-.675-.361-1.4-.02-2.094-.16C.9,1.8.748,1.945.747,2.019Q.741,3.756.771,5.491a2.431,2.431,0,0,0,.116.681,2.85,2.85,0,0,1,0,1.7A1.659,1.659,0,0,0,.856,8.9a5.148,5.148,0,0,1,.192,1.544c.027.985.031,1.971.032,2.956,0,1.1-.008,2.2-.018,3.3s-.012,2.2-.044,3.3a18.91,18.91,0,0,1-.227,3.459,4.524,4.524,0,0,0-.041.866Q.735,25.811.729,27.289c0,.811.015,1.623,0,2.434a4.231,4.231,0,0,1-.1,1.208A8.579,8.579,0,0,0,.4,33.511c-.016,1.334-.017,2.668-.022,4,0,1.275,0,2.55-.009,3.825a14.937,14.937,0,0,1-.229,3.8,1.518,1.518,0,0,0-.031.345C.076,46.7.023,47.915.023,49.131c0,1.682.041,3.362.065,5.042C.1,54.985.1,55.8.12,56.607a2.955,2.955,0,0,0,.066.862A5.292,5.292,0,0,1,.35,59.188q.01,3.476,0,6.955a8.008,8.008,0,0,0,.185,2.241,2.949,2.949,0,0,1,.007,1.535,4.757,4.757,0,0,0,.017,2.4,4.519,4.519,0,0,1,.158,1.2c.008.81,0,1.622.006,2.433a3.285,3.285,0,0,0,.088.53l.825.616c1.522.026,3.057.062,4.593.076a11.692,11.692,0,0,0,2.136-.071,8.7,8.7,0,0,0,2.093-.237,1.717,1.717,0,0,1,.653-.046c.878-.011,1.759-.06,2.635-.012a6.979,6.979,0,0,0,2.735-.485c.092-.033.156-.152.241-.239" fill="#000"/><path d="M105.252,73c.55.012,1.1.027,1.647.036.439.008.878.014,1.318.01a3.536,3.536,0,0,0,1.607-.264c.339-.166.753-.069,1.115-.251a33.665,33.665,0,0,1,3.366-1.309c.257-.1.519-.174.769-.284.8-.352,1.6-.716,2.62-1.175a11.834,11.834,0,0,1,1.14-.812,3.5,3.5,0,0,0,1.476-1.492,9.346,9.346,0,0,0,2.746-2.775c-.037-.142-.063-.244-.088-.346a.819.819,0,0,0-.126-.1,11.46,11.46,0,0,1-3.171-2.319,1.908,1.908,0,0,0-.375-.319q-.96-.638-1.931-1.255a1.1,1.1,0,0,0-.369-.053c-.4.4-.807.844-1.244,1.256a2.887,2.887,0,0,1-1.631,1.042c-.229.151-.447.321-.688.451-.286.155-.592.278-.889.416a3.163,3.163,0,0,0-1.407.4,4.9,4.9,0,0,0-1.837.611,7.94,7.94,0,0,1-3.12-.242,1.979,1.979,0,0,1-1.4-.762c-.319-.373-.689-.7-1.048-1.065a5.316,5.316,0,0,0-.14-.638,8.942,8.942,0,0,1-.555-3.217c.01-.329-.052-.657-.065-.986a4.366,4.366,0,0,1,.024-.657.612.612,0,0,1,.374-.506,10.542,10.542,0,0,1,1.837-.7c.811-.173,1.566-.5,2.354-.714a7.089,7.089,0,0,0,1.08-.38c.4-.181.8-.342,1.207-.51.392-.442.97-.457,1.473-.646q1.539-.576,3.068-1.171a1.85,1.85,0,0,0,.572-.305,8.189,8.189,0,0,1,1.294-.708c.463-.287.88-.648,1.321-.973a1,1,0,0,1,.287-.16,5.662,5.662,0,0,0,1.634-1.083,3.2,3.2,0,0,0,1.083-1.217,1.91,1.91,0,0,1,.525-.625,14,14,0,0,0,1.429-1.574,6.008,6.008,0,0,0,1.29-2.266q.413-1.416.854-2.824a8.753,8.753,0,0,0,.454-3.075,5.586,5.586,0,0,1,.031-.985c.034-.268.171-.523.056-.8.149-.332-.05-.639-.07-.959-.053-.821-.088-1.644-.115-2.467a2.453,2.453,0,0,0-.159-.8,10.478,10.478,0,0,0-.439-1.234,6.86,6.86,0,0,1-.473-1.224,3.5,3.5,0,0,0-.748-1.452,7.655,7.655,0,0,1-.907-1.363,10.306,10.306,0,0,0-2.493-3.028,1.376,1.376,0,0,1-.234-.23,6.894,6.894,0,0,0-2.385-1.719,9.272,9.272,0,0,1-1.412-.837,6.5,6.5,0,0,0-2.214-1.053,5.391,5.391,0,0,1-1.09-.347,2.629,2.629,0,0,0-1.592-.234l-1.722.584c-.164,0-.33.007-.494,0a5.045,5.045,0,0,0-3.205,1.076,21.891,21.891,0,0,0-2.877,2.458,8.781,8.781,0,0,0-1.261,1.511c-.352.555-.779,1.061-1.156,1.6-.41.584-.828,1.163-1.194,1.773-.984,1.647-1.853,3.358-2.714,5.073a42.067,42.067,0,0,0-1.977,4.687,8.045,8.045,0,0,0-.4,1.246c-.088.488-.291.951-.346,1.433A13.6,13.6,0,0,1,93,42.393a8.7,8.7,0,0,0-.493,3.223,11.35,11.35,0,0,1-.006,1.317,5.894,5.894,0,0,1-.259,1.947,10.779,10.779,0,0,0-.234,1.289.9.9,0,0,1-.668.665,2.9,2.9,0,0,1-.479.1,20.939,20.939,0,0,1-3.62,0,2.681,2.681,0,0,1-.471-.133c-.265-.065-.531-.134-.8-.177a.623.623,0,0,0-.786.418,3.185,3.185,0,0,0-.252.776c-.061.489-.061.984-.094,1.477a6.645,6.645,0,0,1-.086.813c-.1.483-.226.958-.336,1.438a5.307,5.307,0,0,0-.152.8c-.039.546-.044,1.094-.062,1.626.306.565.887.628,1.323.829A57.53,57.53,0,0,0,92.5,58.75a2.018,2.018,0,0,1,.218.414,1.749,1.749,0,0,1,.027.492,4.772,4.772,0,0,0,.372,2.086,4.935,4.935,0,0,1,.375,1.925,3.535,3.535,0,0,0,.069.4,24.128,24.128,0,0,0,2.19,3.81c.837.4,1.352,1.23,2.191,1.84a7.68,7.68,0,0,1,2.149,1.486c.709.326,1.428.437,2.05.8a22.383,22.383,0,0,0,3.114,1m4.584-42.188c.2-.186.509-.288.635-.506a4.573,4.573,0,0,1,1.205-1.086,3.37,3.37,0,0,1,1.014-.514,1.442,1.442,0,0,1,1.641.378,2.024,2.024,0,0,1,.213.25c.363.547.734,1.086,1.145,1.6a2.369,2.369,0,0,1,.494,1.2,4.532,4.532,0,0,0,.255,1.284,1.24,1.24,0,0,1,.061.485,19.974,19.974,0,0,1-.034,2.3,18.144,18.144,0,0,1-.326,1.936c-.29,1.274-.634,2.536-1,3.791-.107.367-.213.73-.288,1.106a1.139,1.139,0,0,1-.547.784,7.931,7.931,0,0,1-1.753.88,9.774,9.774,0,0,0-1.494.668,11.335,11.335,0,0,1-2.732,1.093,8.883,8.883,0,0,0-1.847.663,15.3,15.3,0,0,1-2.824.8c-.148.035-.293-.124-.293-.312a1.693,1.693,0,0,1,0-.326c.163-.69.241-1.4.412-2.083a5.528,5.528,0,0,0,.207-1.122,1.1,1.1,0,0,1,.066-.483c.287-.5.162-1.079.321-1.6.113-.365.249-.724.4-1.075s.315-.7.488-1.038a5.4,5.4,0,0,0,.41-1.236,5.158,5.158,0,0,1,1.036-2.375,3.089,3.089,0,0,0,.659-1.784,25.809,25.809,0,0,0,1.961-3.059,2.057,2.057,0,0,1,.523-.619m-7.534,17.1c-.014.054-.03.106-.042.16-.041.036-.077.081-.116.121.039-.04.075-.085.115-.121.013-.054.029-.106.043-.16" fill="#000"/><path d="M86.991,19.991c-.09-.064-.19-.113-.3-.176a4.166,4.166,0,0,0-1.622.073,4.185,4.185,0,0,1-1.462.183q-2.226-.015-4.449-.021a2.582,2.582,0,0,0-.653.051,1.29,1.29,0,0,0-.367.246c-.018.106-.032.164-.037.222a7.448,7.448,0,0,1-.268,2.251,2.4,2.4,0,0,0-.071.7,4.549,4.549,0,0,1-.2,1.2,3.8,3.8,0,0,0-.137.859,2.529,2.529,0,0,1-.162.855,2.884,2.884,0,0,0-.186,1.025,9.7,9.7,0,0,1-.3,2.6c-.027.761-.078,1.521-.076,2.281a5.142,5.142,0,0,1-.177,1.727,12.4,12.4,0,0,1-.37,1.7c-.064.639-.209,1.262-.326,1.892a7.625,7.625,0,0,0-.061,1.75,15.363,15.363,0,0,1-.408,3.644,1.108,1.108,0,0,1-.255.437c-.088.11-.221.116-.267.022-.283-.567-.517-1.165-.838-1.7-.352-.589-.771-1.132-1.136-1.718a12.228,12.228,0,0,1-.835-1.508,11.881,11.881,0,0,0-1.106-1.946,10.18,10.18,0,0,1-.914-1.659,15.074,15.074,0,0,0-2.163-3.533,12.252,12.252,0,0,1-.656-1.583,10.762,10.762,0,0,0-.72-1.764c-.195-.42-.425-.821-.613-1.243a11.864,11.864,0,0,1-1.1-2.915,1.9,1.9,0,0,0-.414-.746.8.8,0,0,0-1.291.027,2.587,2.587,0,0,0-.371.578,5.994,5.994,0,0,1-1.1,1.736,1.4,1.4,0,0,0-.276.434A15.541,15.541,0,0,1,60,28.4a6.762,6.762,0,0,0-.724,1.761c-.091.335-.2.664-.323.99a3.76,3.76,0,0,1-.281.627,18.9,18.9,0,0,0-1.86,3.7,10.029,10.029,0,0,1-.438.943,14.246,14.246,0,0,0-.612,1.435,15.811,15.811,0,0,1-.711,1.769c-.144.314-.257.644-.379.969-.487,1.3-.972,2.594-1.5,4-.452-1.465-.666-2.882-1.166-4.216a7.322,7.322,0,0,0-.309-2.415c-.148-.432-.043-.922-.251-1.366a4.785,4.785,0,0,1-.167-1.557,1.251,1.251,0,0,0-.052-.345,5.553,5.553,0,0,1-.257-1.723,2.122,2.122,0,0,0-.087-.689,4.784,4.784,0,0,1-.266-1.545c-.074-.573-.162-1.143-.228-1.717a13.975,13.975,0,0,0-.28-1.9,10.217,10.217,0,0,1-.145-1.743,1.915,1.915,0,0,0-.077-.519,5.572,5.572,0,0,1-.21-1.733,2.907,2.907,0,0,0-.126-1.177.846.846,0,0,0-.721-.4c-1.208-.036-2.416.034-3.623-.1a4.99,4.99,0,0,0-.658.011,7.067,7.067,0,0,1-.987,0,7.317,7.317,0,0,1-.954-.248,9.4,9.4,0,0,1-1.122.283,9.608,9.608,0,0,1-1.152.031,3.5,3.5,0,0,0-.493.022,1.048,1.048,0,0,0-.283.143,4.429,4.429,0,0,0,.031,2.064,7.329,7.329,0,0,1,.217,1.731c.024.761.033,1.523.055,2.283a3.7,3.7,0,0,0,.057.873,11.3,11.3,0,0,1,.249,2.612,8.442,8.442,0,0,0,.092,1.573,14.425,14.425,0,0,1,.246,2.438,2.4,2.4,0,0,0,.067.7,7.2,7.2,0,0,1,.271,2.252,2.9,2.9,0,0,0,.074.695,7.109,7.109,0,0,1,.23,1.909,5.243,5.243,0,0,0,.188,1.2c.252.953.5,1.913.689,2.877a12.573,12.573,0,0,1,.434,2.223,8.629,8.629,0,0,0,.269,1.9c.139.558.245,1.135.343,1.7s.291,1.128.335,1.711c.037.467.03.94.091,1.4s.242.909.258,1.368a7.232,7.232,0,0,0,.378,1.7c.125.448.27.889.423,1.326a13.516,13.516,0,0,1,.52,2.2c.089.515.193,1.026.283,1.539a11.31,11.31,0,0,0,.5,1.665,5.8,5.8,0,0,1,.219.656c.146.683.387,1.337.53,2.018.247,1.195.669,2.337.916,3.536.187.907.41,1.811.637,2.71a.851.851,0,0,0,1.041.634.618.618,0,0,0,.4-.267,10.082,10.082,0,0,0,.444-1.128c.153-.441.475-.777.617-1.234.223-.72.512-1.416.773-2.122a12.6,12.6,0,0,1,1.194-2.494,3.929,3.929,0,0,0,.4-.757c.358-.979.84-1.9,1.179-2.886a7.282,7.282,0,0,1,.64-1.415,25.208,25.208,0,0,0,1.391-2.78,15.737,15.737,0,0,1,1.217-2.281,10.994,10.994,0,0,0,1.272-2.249,19.822,19.822,0,0,1,2.052-3.788c.46-.724,1.018-1.376,1.536-2.058.022-.029.086-.023.132-.034.086.071.209.121.254.213.478.987,1.009,1.951,1.4,2.976a48.431,48.431,0,0,0,3.355,7.02,26.045,26.045,0,0,1,1.316,2.428,3.668,3.668,0,0,0,.339.6,13.3,13.3,0,0,1,1.548,3.073,16.79,16.79,0,0,1,1.665,2.4,25.426,25.426,0,0,0,1.845,2.462,2.888,2.888,0,0,0,.5.455,7.2,7.2,0,0,1,.673.5,8.564,8.564,0,0,1,.611.752,1.407,1.407,0,0,0,1.212.009c.207-.291.444-.609.666-.94a3.438,3.438,0,0,0,.237-.46q.443-.941.882-1.883a25.2,25.2,0,0,0,.724-2.686,1,1,0,0,1,.079-.338A11.7,11.7,0,0,0,80.5,62.51c.164-.678.342-1.349.546-2.012.153-.5.381-.968.56-1.415A16.72,16.72,0,0,1,82.6,54.2a7.2,7.2,0,0,1,.318-2.35c-.042-.833.362-1.585.383-2.408a2.281,2.281,0,0,1,.2-.844c.159-.37.284-.757.4-1.08.022-.768.042-1.469.06-2.108.107-.278.188-.493.261-.687.025-.727.048-1.428.07-2.045l.536-1.686a4.429,4.429,0,0,1-.007-2.3A4.885,4.885,0,0,0,84.928,38c.03-.7.229-1.38.291-2.077a5.953,5.953,0,0,1,.328-2.061.687.687,0,0,0,.027-.348c-.122-1.134.38-2.176.43-3.284a4.182,4.182,0,0,0,.254-2.059c0-.349.041-.7.064-1.049a4.253,4.253,0,0,0,.255-1.885c.03-.585.065-1.171.044-1.755-.02-.6.282-1.132.26-1.725a2.453,2.453,0,0,1,.3-1.167.475.475,0,0,0-.193-.6" fill="#000"/><path d="M153.039,148.9a2.564,2.564,0,0,0,.826-.084,6.712,6.712,0,0,1,2.147-.265,3.651,3.651,0,0,0,.992-.094,6.757,6.757,0,0,1,1.314-.226,3.573,3.573,0,0,0,.648-.145,10.723,10.723,0,0,1,1.76-.512,19.649,19.649,0,0,0,1.881-.676c.107-.026.21-.068.4-.129a3.2,3.2,0,0,1,1.122-.861,2.174,2.174,0,0,0,.672-.49c.246-.224.5-.437.855-.742a9.217,9.217,0,0,1,.887-1.826,4.833,4.833,0,0,0,.941-1.936.964.964,0,0,1,.236-.437,6.769,6.769,0,0,0,.98-2.8c.188-.746.1-1.551.351-2.3a2.515,2.515,0,0,0,.054-.665,5.106,5.106,0,0,1,.157-1.157,3.343,3.343,0,0,0,.1-.825q.056-2.51.1-5.021a9.866,9.866,0,0,0-.032-1,2.83,2.83,0,0,0-.138-.82,3.557,3.557,0,0,1-.18-1.316c0-.388-.042-.777-.061-1.068-.277-.6-.513-1.1-.731-1.568A7.741,7.741,0,0,0,167,120.591c-.212-.1-.41-.2-.613-.3-.909-.419-1.782-.915-2.728-1.264-.412-.152-.757-.447-1.185-.6-1.982-.735-3.962-1.472-5.983-2.093-1.218-.376-2.448-.708-3.662-1.057-.015-.133-.027-.235-.042-.361a1.733,1.733,0,0,1,.456-.164c.387-.026.78,0,1.17-.019a2.771,2.771,0,0,0,.824-.093,5.245,5.245,0,0,1,1.976-.279c.329.008.636-.245.975-.07a5.374,5.374,0,0,0,.792-.24,9.872,9.872,0,0,1,1.915-.57c.975-.238,1.9-.637,2.863-.907a1.293,1.293,0,0,0,.449-.222,18.318,18.318,0,0,0,1.877-1.387c.508-.516,1.055-.994,1.7-1.6l1-1.5c.015-.218.027-.385.046-.641a7.564,7.564,0,0,0,.85-2.072,5.174,5.174,0,0,1,.5-1.234c.481-.824.793-1.718,1.18-2.5a11.972,11.972,0,0,1,.222-1.56,5.689,5.689,0,0,0,.19-1.486c0-.726,0-1.452-.015-2.177a2.88,2.88,0,0,0-.1-.994,7.538,7.538,0,0,1-.27-1.843c-.152-.385-.264-.641-.352-.9a5.476,5.476,0,0,1-.218-.8,2.859,2.859,0,0,0-.318-.943c-.246-.436-.453-.9-.7-1.33a9.153,9.153,0,0,0-2.2-2.717,25.059,25.059,0,0,0-2.009-1.5A13.617,13.617,0,0,0,163.7,84.1c-1.274-.561-2.532-1.16-3.795-1.745a6.058,6.058,0,0,0-.758-.347c-.265-.081-.534-.151-.8-.223-.912-.25-1.82-.507-2.719-.8a7.08,7.08,0,0,0-1.454-.356,9.975,9.975,0,0,1-1.953-.433,5.43,5.43,0,0,0-1.3-.261,4.046,4.046,0,0,1-1.154-.166c-1-.353-2.037-.567-3.051-.86a18.965,18.965,0,0,0-2.414-.641,14.536,14.536,0,0,0-2.641-.389.938.938,0,0,1-.331-.04,8.587,8.587,0,0,0-2.98-.268c-.558,0-1.117.015-1.674-.014-.949-.049-1.9-.065-2.845-.025a4.15,4.15,0,0,1-1.819-.173,2.347,2.347,0,0,0-.662-.078A26.693,26.693,0,0,0,128,77.218c-.725.032-1.45.021-2.176.025-1.061.007-2.121-.021-3.18.026-.953.042-1.9-.029-2.845-.055s-1.9.034-2.844.051c-.167,0-.334-.022-.5-.027a13.543,13.543,0,0,0-3.991.233,2.7,2.7,0,0,1-.667.009c-.214,0-.419-.187-.777.068-.107.128-.321.379-.513.606a9.2,9.2,0,0,1-.12,1.715,10.721,10.721,0,0,0-.219,2.322,8.457,8.457,0,0,1-.262,2.32,3.3,3.3,0,0,0-.076.831c-.029.557-.044,1.116-.077,1.672a3.37,3.37,0,0,1-.1.825,9.215,9.215,0,0,0-.241,1.989.765.765,0,0,0,.4.768c.3.026.693.046,1.079.094.33.042.654.126.983.178.349.056.642-.175.971-.212s.667-.028,1-.036a10.632,10.632,0,0,0,2.858-.3,3.58,3.58,0,0,0,1.95.213c.275-.026.546-.132.82-.13a6.7,6.7,0,0,1,.817.144,1.142,1.142,0,0,0,.5-.008,3.178,3.178,0,0,1,2.128-.02,3.876,3.876,0,0,0,1,.056c1.395.06,2.791-.065,4.184.085a1.631,1.631,0,0,0,.335,0,19.751,19.751,0,0,1,2.676.029,1.394,1.394,0,0,1,.343.124,1.533,1.533,0,0,1,.132.432c0,1.116-.02,2.231-.02,3.348,0,1.284.022,2.567.018,3.851a5.791,5.791,0,0,1-.1,1.5,13.762,13.762,0,0,0-.262,2.488,5.536,5.536,0,0,1-.162,1.325,1.527,1.527,0,0,0,.017.988,2.7,2.7,0,0,1,.031,1.487,6.472,6.472,0,0,0-.145,1.326c-.065,1.674-.132,3.347-.1,5.023a8.253,8.253,0,0,1-.068,1.836,17.052,17.052,0,0,0-.214,2.494,6.8,6.8,0,0,1-.137,1.328,5.35,5.35,0,0,0-.144,1.323c-.019,1.285-.031,2.568-.059,3.852a4.067,4.067,0,0,1-.106,1.162,6.05,6.05,0,0,0-.2,1.82c-.029,1.674-.044,3.349-.07,5.024a2.548,2.548,0,0,1-.063.828,5.845,5.845,0,0,0-.211,1.987c-.015.949,0,1.9-.016,2.847a3.126,3.126,0,0,1-.109.99,4.409,4.409,0,0,0-.214,1.481q-.029,3.6-.053,7.2c0,.335.039.673.005,1a8.646,8.646,0,0,1-.2.948c.3.343.722.325,1.093.47.369-.067.748-.164,1.132-.2s.779-.008,1.17-.01c.78,0,1.562-.018,2.342-.008a4.246,4.246,0,0,1,1,.091,8.765,8.765,0,0,0,3.95-.01,4.29,4.29,0,0,0,2.494.1,8.566,8.566,0,0,1,2.653-.249c2.12.1,4.239.076,6.36.02.613-.016,1.228,0,1.842-.011m1.066-56a8.642,8.642,0,0,0,1.147.2c.436.084.876.16,1.3.284.639.188,1.278.387,1.9.632a15.7,15.7,0,0,0,1.892.639,1.62,1.62,0,0,1,1.024.865c.066.282.146.605.225.941a8.06,8.06,0,0,1-1.942,3.8,1.494,1.494,0,0,1-.364.342,6.774,6.774,0,0,1-2.043,1.1c-.323.067-.625.246-.948.317a3.078,3.078,0,0,0-1.329.669,3.353,3.353,0,0,1-1.295.717,6.7,6.7,0,0,0-1.181.58,3.639,3.639,0,0,0-1.309.3,9.664,9.664,0,0,0-2.393.687.986.986,0,0,1-.487.1,18.9,18.9,0,0,0-2.47.352,3.563,3.563,0,0,0-.9.293.658.658,0,0,1-.5-.8,3.639,3.639,0,0,0-.03-2.135,1.392,1.392,0,0,1-.018-.825,9.855,9.855,0,0,0,.28-3.143c0-.388-.008-.778-.01-1.167a1.656,1.656,0,0,1,.017-.5,13.457,13.457,0,0,0,.28-3.647c.01-.222.008-.446.038-.666a1.783,1.783,0,0,1,.432-1.011,6.106,6.106,0,0,1,1.175-.012,2.25,2.25,0,0,0,1.15-.033c1.027.238,2.109.013,3.128.4.51.195,1.091.1,1.626.318.5.208,1.081.224,1.611.4m-10.939,45.642c-.073-.093-.18-.171-.194-.264a5.53,5.53,0,0,1-.061-.833c0-1.671.071-3.343.06-5.014a6.131,6.131,0,0,1,.2-1.822,2.322,2.322,0,0,0-.163-1.486c.071-.429.162-.863.208-1.3s.053-.891.072-1.337c.057-1.355.424-1.453,1.544-1.215.326.069.652.143.983.183.6.075,1.213.126,1.821.188.567-.183,1.086.165,1.644.148a4.09,4.09,0,0,1,1.485.192,2.567,2.567,0,0,0,.655.1,8.521,8.521,0,0,1,1.473.271c.7.178,1.419.269,2.126.419A13.526,13.526,0,0,1,158.1,128c.088.056.141.168.3.364.009,1.1.026,2.162.027,3.223a4.745,4.745,0,0,1-.215,1.648,3.431,3.431,0,0,0-.126.822c-.035.389-.053.778-.078,1.169a2.936,2.936,0,0,1-2.187,1.636,12.113,12.113,0,0,1-1.3.3c-.553.069-1.113.073-1.669.1-.278.012-.557,0-.833,0l-1.689.571a6.976,6.976,0,0,0-2.037.308,2.345,2.345,0,0,1-.828.06c-.557.021-1.115.031-1.673.056a3.548,3.548,0,0,0-.983.17,3.343,3.343,0,0,1-1.64.106m-3.642-45.281c.084-.084.23-.108.524-.154-.294.047-.44.07-.524.154" fill="#000"/><path d="M71.633,78.339a1.534,1.534,0,0,0-.212-.458c-.236-.009-.456-.027-.676-.024-.448.006-.893.033-1.34.03a2.088,2.088,0,0,1-.977-.187,1.827,1.827,0,0,0-.975-.194c-1.451.087-2.9-.1-4.352.03a5.5,5.5,0,0,1-2.154-.2,3.463,3.463,0,0,0-1.984,0,5.511,5.511,0,0,1-1.325.152,4.77,4.77,0,0,1-1.652-.22l-4.856.01a12.315,12.315,0,0,1-3.33.191,2.375,2.375,0,0,1-.664-.055A6.54,6.54,0,0,0,43.99,77.4a5.716,5.716,0,0,1-1,.094c-1.116.039-2.233.065-3.43.1a7.776,7.776,0,0,1-.884.237,4.914,4.914,0,0,0-1.472.28,1.534,1.534,0,0,1-.5.071c-.887.093-1.783.04-2.672.162a5.742,5.742,0,0,1-.989-.1,2.707,2.707,0,0,0-1,.042,11.28,11.28,0,0,0-1.775.469c-1.385.41-2.737.932-4.143,1.285a11.439,11.439,0,0,0-2.359.828q-1.946.971-3.907,1.911a7.542,7.542,0,0,0-1.294.763c-.626.467-1.25.938-1.9,1.365a11.751,11.751,0,0,0-2.453,2c-.294.334-.645.618-.958.934a9.365,9.365,0,0,0-.914.98c-.83,1.119-1.654,2.243-2.432,3.4a26.8,26.8,0,0,1-1.642,2.318,3.75,3.75,0,0,0-.889,1.955,3.5,3.5,0,0,1-.5,1.4,6.458,6.458,0,0,0-.923,2.977,9.921,9.921,0,0,0-.569,1.42c-.29,1.246-.611,2.481-1.022,3.692a5.277,5.277,0,0,1-.551,1.745c-.366.872-.751,1.737-1.147,2.649a8.775,8.775,0,0,1-.848,3.5c-.082.207-.179.409-.269.613a6.459,6.459,0,0,0-.579,2.25,4.889,4.889,0,0,1-.193.976,9.33,9.33,0,0,0-.434,2.12C.315,121.4.31,122.964.288,124.527a6.27,6.27,0,0,1-.195,1.99,1.569,1.569,0,0,0-.023.992,5.286,5.286,0,0,1,.172,1.656c.024,1.451.042,2.9.065,4.354a3.959,3.959,0,0,0,.171.978,10.427,10.427,0,0,1,.5,2.781c0,.222.033.444.051.671.217.454.406.922.654,1.357a10.828,10.828,0,0,1,.957,2.306,9.052,9.052,0,0,0,1.127,2.412,11.205,11.205,0,0,1,.976,1.748,7.208,7.208,0,0,0,.776,1.28c.524.734,1.187,1.333,1.759,2.019a19.292,19.292,0,0,0,2.937,2.726c.784.619,1.617,1.185,2.44,1.757a18.606,18.606,0,0,0,2.906,1.644,5.515,5.515,0,0,0,2.547.727,1.6,1.6,0,0,1,.491.088,10.617,10.617,0,0,0,3.1.6,6.108,6.108,0,0,0,1.8.325.941.941,0,0,1,.326.075,3.476,3.476,0,0,0,1.475.243,2.7,2.7,0,0,1,.828.092,4.528,4.528,0,0,0,1.819.171c.278-.009.555-.043.832-.078a8.372,8.372,0,0,1,.984.114c.836-.014,1.675,0,2.512-.005a5.748,5.748,0,0,1,1.984.233,1.5,1.5,0,0,0,.658.026,1.413,1.413,0,0,1,.653-.023,2.746,2.746,0,0,0,1.306-.1c.173.044.334.087.584.153a7.241,7.241,0,0,1,2.393-.309c.5-.026,1-.01,1.508-.019a2.035,2.035,0,0,0,.661-.049,6.533,6.533,0,0,1,1.813-.268,2.467,2.467,0,0,0,.653-.125,2.747,2.747,0,0,1,.981-.17,3.563,3.563,0,0,0,1.639-.263,17.318,17.318,0,0,1,2.629-.429.624.624,0,0,0,.326-.067,4.234,4.234,0,0,1,1.633-.3,2.923,2.923,0,0,0,.663-.059,10.274,10.274,0,0,1,1.983-.259,14.873,14.873,0,0,1,2.144-.3,2.525,2.525,0,0,0,.829-.086c.687-.261,1.449-.142,2.123-.453a1.413,1.413,0,0,1,.492-.063,12.119,12.119,0,0,0,1.834-.123,12.075,12.075,0,0,1,1.968-.341,4.705,4.705,0,0,1,1.663-.31c.069-.135.2-.274.21-.419.024-.611,0-1.226.015-1.838.02-.723.066-1.447.1-2.171a5.118,5.118,0,0,0,.22-1.819q.035-1.422,0-2.847c-.03-1.228-.054-2.456.009-3.683a1.94,1.94,0,0,0-.056-.431.718.718,0,0,0-.725-.416,2.013,2.013,0,0,0-.488.1,11.763,11.763,0,0,1-3.276.584,5.069,5.069,0,0,0-1.326.141,5.417,5.417,0,0,1-1.162.118c-.836.034-1.673.05-2.511.071a8.878,8.878,0,0,0-2.656.223,3.535,3.535,0,0,1-1,.071c-.5.015-1.007.007-1.508.025a2.787,2.787,0,0,0-.827.093,5.01,5.01,0,0,1-1.818.209,7.124,7.124,0,0,0-2.324.213,2,2,0,0,1-.831.008,6.006,6.006,0,0,1-.78-.194,7.272,7.272,0,0,1-2.518.313c-1.06.02-2.123.023-3.183.037a8.256,8.256,0,0,0-1.661.152,10.12,10.12,0,0,1-2.5.049,9.277,9.277,0,0,0-2.657-.232,8.073,8.073,0,0,1-1.5-.14,7.722,7.722,0,0,0-1.322-.186,10.831,10.831,0,0,1-1.82-.239c-.59-.137-1.231-.037-1.83-.151-.654-.123-1.311-.251-1.965-.377a10.027,10.027,0,0,1-1.565-.573,2.144,2.144,0,0,1-.9-.724,3,3,0,0,1-.521-1.041c-.112-.373-.218-.747-.319-1.1.014-.528.056-1.031.035-1.531-.054-1.284-.1-2.566-.077-3.851a4.163,4.163,0,0,0-.247-1.455,6.317,6.317,0,0,0,.221-1.836c.01-1.172.029-2.345.05-3.517a1.982,1.982,0,0,1,.054-.662,5.607,5.607,0,0,0,.208-1.982c.014-1,.086-2.007.132-3.012.3-.731.157-1.551.465-2.283.116-.276-.067-.541-.1-.744.095-.612.169-1,.21-1.381a2.546,2.546,0,0,1,.175-.978,1.692,1.692,0,0,0,.147-.817,3.556,3.556,0,0,1,.34-1.286,17.962,17.962,0,0,0,1.139-3.13,5.583,5.583,0,0,1,.3-.781c.3-.847.842-1.569,1.2-2.382a5.435,5.435,0,0,1,1.01-1.529,7.649,7.649,0,0,0,.981-1.349,6.132,6.132,0,0,1,.683-.946,15.265,15.265,0,0,1,2.355-2.13c.766-.557,1.519-1.134,2.284-1.706,1.333-.666,2.785-1.1,4.11-1.811a1.888,1.888,0,0,1,.618-.25,11.858,11.858,0,0,0,1.745-.569,2.516,2.516,0,0,1,.974-.195,4.369,4.369,0,0,0,1.957-.327,10.945,10.945,0,0,0,1.413-.488,2.326,2.326,0,0,1,1.13-.229c.334,0,.668.059,1,.054.559-.008,1.115-.044,1.672-.069a7.1,7.1,0,0,1,2.3-.337c.211-.077.418-.155.64-.238l3.738-.084c.146-.064.347-.157.552-.244.255-.108.513-.211.7-.288a7.525,7.525,0,0,0,2.609-.387c1.558.107,3.172-.18,4.791-.051a1.429,1.429,0,0,0,.333-.017,5.181,5.181,0,0,1,.823-.138c.329,0,.657.1.988.127.5.038,1,.051,1.448.072l1.452-.627H68.59l1.271.459a.863.863,0,0,0,.619-.547c.012-.056.045-.115.034-.162a4.049,4.049,0,0,1,.037-2.308,3.033,3.033,0,0,0,.069-.829,5.775,5.775,0,0,1,.287-2.306,1.2,1.2,0,0,0,.046-.5c-.005-.336-.052-.672-.031-1.005a11.311,11.311,0,0,1,.169-1.323,8.2,8.2,0,0,1,.248-.795c.094-.32.178-.643.237-.858.038-.833.084-1.557.1-2.282.011-.5-.005-1-.042-1.5" fill="#000"/><path d="M97.377,151.966c1.34.018,2.679.049,4.02.057a3.65,3.65,0,0,0,1.162-.107,8.8,8.8,0,0,1,1.926-.27c.932-.375,1.815-.716,2.686-1.087a4.2,4.2,0,0,0,1.394-.9,11.324,11.324,0,0,1,1.993-1.572c.394-.49.695-.893,1.028-1.267a2.886,2.886,0,0,0,.437-.7c.263-.552.539-1.1.814-1.648a8.4,8.4,0,0,0,.723-1.5,13.109,13.109,0,0,1,.844-1.624c.062-.153.12-.311.174-.467.324-.947.667-1.887.962-2.842a12.427,12.427,0,0,0,.821-3.055,1.775,1.775,0,0,1,.107-.315,19.693,19.693,0,0,1,.726-2.027c.011-.129.025-.24.031-.351a3.763,3.763,0,0,1,.324-1.957,1.1,1.1,0,0,0,.066-.491c.016-.39.021-.78.03-1.135.161-.517.316-.995.46-1.475a3.581,3.581,0,0,0,.161-.647c.049-.5.054-1,.107-1.5a3.305,3.305,0,0,0,.094-1.643q.108-.822.217-1.647c.363-.6.2-1.311.449-1.943a7.612,7.612,0,0,0,.158-2.155,9.4,9.4,0,0,1,.151-1.327,6.7,6.7,0,0,0,.177-1.324,4.669,4.669,0,0,1,.242-1.813,1.754,1.754,0,0,0,.067-.661c.018-1.172.028-2.344.044-3.517a4.592,4.592,0,0,1,.212-1.814,2.345,2.345,0,0,0,.09-.826c.018-.614.017-1.228.023-1.843a3.156,3.156,0,0,1,.168-1.152,3.183,3.183,0,0,0,.168-1.153q.025-1.59.052-3.181a5.966,5.966,0,0,1,.018-.836,9.9,9.9,0,0,1,.247-.969c-.082-.329-.179-.649-.24-.976a4.065,4.065,0,0,0-.2-1.139,1.1,1.1,0,0,0-.108-.132,11.34,11.34,0,0,0-1.583-.946c-1.35.047-2.642-.4-3.986-.4a1.292,1.292,0,0,1-.488-.1,3.917,3.917,0,0,0-1.149-.195,3.7,3.7,0,0,1-.819-.139,5.137,5.137,0,0,0-2.316-.17,1.376,1.376,0,0,0-.333.145,1.6,1.6,0,0,0-.15.429c-.028.446.008.9-.032,1.34s-.144.876-.209,1.316a3.337,3.337,0,0,0-.029.5c0,1.675,0,3.35.006,5.025a2.531,2.531,0,0,0,.1.827,3.852,3.852,0,0,1,.155,1.321c0,.725-.006,1.452,0,2.178a4.818,4.818,0,0,1-.155,1.487,3.11,3.11,0,0,0,.05,1.816c.047.158.073.324.108.478-.062.285-.12.556-.176.819.054.393.124.776.154,1.163.027.332,0,.67.01,1a4.242,4.242,0,0,1-.18,1.152,3.607,3.607,0,0,0-.066.833c0,.5.031,1,.016,1.506-.024.892-.073,1.784-.111,2.675a6.285,6.285,0,0,0-.273,1.954c-.368,1.074-.674,1.968-.98,2.866v1.487c-.185.443-.368.847-.525,1.264a8.762,8.762,0,0,0-.473,1.42,6.837,6.837,0,0,0-.368,1.624c-.2.518-.427,1.029-.607,1.554a7.074,7.074,0,0,0-.45,2c-.452.963-.875,1.811-1.253,2.679a3,3,0,0,1-1.575,1.656c-.419.18-.749.48-1.141.692a6.251,6.251,0,0,1-2.064.627,1.455,1.455,0,0,1-.664-.018,15.284,15.284,0,0,0-1.638-.333,2,2,0,0,1-.531-.292c-.194-.585-.339-1.121-.548-1.63a20.011,20.011,0,0,1-.532-2.446.906.906,0,0,1-.007-.333,5.785,5.785,0,0,0,.1-.821c-.008-.273-.137-.543-.144-.816-.037-1.451-.057-2.9-.075-4.354,0-.558.015-1.117.016-1.675,0-.614-.011-1.229-.011-1.842a5.228,5.228,0,0,1-.038-1.652c.042-.137-.061-.321-.1-.481a2.361,2.361,0,0,1-.158-.643,15.879,15.879,0,0,1,.235-3.66,3.105,3.105,0,0,0,.053-.832c0-.893-.014-1.786-.022-2.679a4.891,4.891,0,0,0-.153-1.492,1.3,1.3,0,0,1,.03-.656,3.647,3.647,0,0,0,.028-1.818.928.928,0,0,1-.042-.484,5.583,5.583,0,0,0,.176-1.826c.011-2.512,0-5.025,0-7.442.121-.361.208-.624.321-.967,0-.928-.006-1.932,0-2.937,0-.615.017-1.229.061-1.841.02-.272.176-.536.186-.806a4.78,4.78,0,0,0-.126-.819.7.7,0,0,1,.007-.332,8.4,8.4,0,0,0,.234-2.321,5.753,5.753,0,0,1,.127-1.158,5.757,5.757,0,0,0,.175-1.321,14.445,14.445,0,0,1,.126-1.5c.062-.381.208-.746.244-1.14s.123-.762.184-1.124a1.174,1.174,0,0,0-.751-.706c-.457-.02-.958-.04-1.461-.064a2.033,2.033,0,0,1-.663-.057,5.311,5.311,0,0,0-1.981-.233c-1-.029-2.009-.031-3.015-.05a3.663,3.663,0,0,1-1-.065,9.629,9.629,0,0,0-2.991-.223c-1.564.014-3.128.029-4.692.031-1.786,0-3.574-.016-5.36-.016-.1,0-.193.084-.289.129-.158.248-.088.538-.145.805a6.043,6.043,0,0,0-.213.976c-.049,1.227-.072,2.455-.081,3.683-.008.781.034,1.563.037,2.345.008,1.786,0,3.573,0,5.361a1.761,1.761,0,0,0,.035.5,1,1,0,0,0,.643.488c.707.152,1.428.255,2.116.467a5.752,5.752,0,0,0,1.307.24,11.978,11.978,0,0,1,2.982.3,2.812,2.812,0,0,0,.667.05l1.355.1c.089.141.232.27.251.414a3.925,3.925,0,0,1-.1,1.658,5.4,5.4,0,0,0-.176,1.32,25.229,25.229,0,0,1-.3,4.331,2.382,2.382,0,0,0-.019.5c-.018,2.234-.026,4.467-.06,6.7a12.081,12.081,0,0,1-.275,3.489,2.449,2.449,0,0,0-.042.666c-.009.447-.014.894-.012,1.341q.015,3.854.034,7.706a5.529,5.529,0,0,0,.066,1.335,12.828,12.828,0,0,1,.246,3.161c.013.781,0,1.563,0,2.346a9.971,9.971,0,0,0,.206,2.494,1.579,1.579,0,0,1-.028.824,6.727,6.727,0,0,0-.194,1.49c-.062.775-.044,1.555-.163,2.265a11.4,11.4,0,0,0,.259,1.538,10.511,10.511,0,0,1,.276,1.3,8.258,8.258,0,0,0,1,2.987c.378.616.745,1.239,1.067,1.777.252.2.434.336.6.485a9.56,9.56,0,0,0,2.73,1.6,14.43,14.43,0,0,0,2.066.657,12.011,12.011,0,0,0,2.124.423c.953.07,1.843.452,2.8.473a3.54,3.54,0,0,0,1.481.211m13.792-57.848h0a1.613,1.613,0,0,1-.117.117c.039-.039.083-.076.117-.117" fill="#000"/><path d="M77.3,124.612c-.625-.507-.844-.624-1.365-.483a7.557,7.557,0,0,1-2.327.122,4.625,4.625,0,0,0-1.82-.172c-2.065-.029-4.131-.05-6.2-.08a4.588,4.588,0,0,1-1.165-.077,9.112,9.112,0,0,0-1.99-.2c-.5-.03-1-.061-1.5-.114-.091-.009-.171-.125-.285-.214a6.211,6.211,0,0,1,.169-2.128,2.754,2.754,0,0,0,.086-.825c.01-.894-.007-1.786.01-2.679a4.093,4.093,0,0,1,.116-1.159,6.786,6.786,0,0,0,.224-2.152c0-.669,0-1.34.022-2.008a3.363,3.363,0,0,1,.135-.99c.247-.689.132-1.446.441-2.122a1.916,1.916,0,0,0,.064-.663,14.84,14.84,0,0,1,.311-3.484,3.318,3.318,0,0,0,.041-.667,1.881,1.881,0,0,1,.079-.658c.378-.771.2-1.655.527-2.439a2.034,2.034,0,0,0,.015-.829.91.91,0,0,0-.3-.584,3.856,3.856,0,0,0-2.083-.494C60,99.5,59.5,99.5,59,99.5c-.558,0-1.115,0-1.673-.006-.5,0-1.006-.006-1.508,0-.558,0-1.119-.025-1.675.019-.5.041-.96-.213-1.483-.081A9.356,9.356,0,0,1,51,99.592c-.335.022-.67,0-1.005.016a5.086,5.086,0,0,0-.663.07c-.328.06-.652.143-.977.213-.38.081-.761.158-1.147.238-.263-.062-.534-.125-.828-.2-.118.094-.245.194-.368.289a6.794,6.794,0,0,1-.21,1.336c-.175.481-.142,1-.333,1.459-.2.482-.12,1.011-.3,1.467-.25.639-.2,1.321-.409,1.957-.387,1.163-.627,2.361-.9,3.549a7.335,7.335,0,0,0-.256.966A19.684,19.684,0,0,0,43.2,114.1a1.259,1.259,0,0,1-.063.5,5.926,5.926,0,0,0-.276,1.811,1.961,1.961,0,0,1-.1.657c-.227.531-.119,1.119-.3,1.639a6.854,6.854,0,0,0-.275,1.643.95.95,0,0,1-.059.328,4.423,4.423,0,0,0-.278,1.469c-.076.549-.25,1.088-.287,1.638-.033.514-.3.959-.325,1.464s-.05,1-.088,1.5a1.8,1.8,0,0,1-.1.489c-.194.524-.221,1.085-.4,1.619a9.38,9.38,0,0,0-.4,1.615,8.543,8.543,0,0,1-.318,1.972,2.055,2.055,0,0,0-.05.665c-.008.334,0,.669-.007,1a5.227,5.227,0,0,1-.257,1.812,2.91,2.91,0,0,0-.085.826.661.661,0,0,0,.4.5c.327.059.656.116.986.153a8.7,8.7,0,0,0,1.305.267c.446-.016.894.043,1.339.043q4.773,0,9.544,0a8.183,8.183,0,0,0,1-.034c.329-.042.65-.142.991-.219.15.033.314.063.475.107a3.512,3.512,0,0,0,1.821.052,6.519,6.519,0,0,1,1.654-.178c.837-.014,1.674.011,2.509,0a3.116,3.116,0,0,1,1.484.12.453.453,0,0,0,.318-.008,3.141,3.141,0,0,1,.992-.109c1.786-.085,3.57.005,5.357,0a2.593,2.593,0,0,1,.823.1,4.249,4.249,0,0,0,1.326.112c.279.008.545-.181.82-.066.383.163.766-.13,1.143.024.442-.132.87.139,1.311.048a1.36,1.36,0,0,0,.8-.547c.149-.41-.155-.764-.114-1.207a2.873,2.873,0,0,0,.207-1.261,6.524,6.524,0,0,1,.119-1.328,6.192,6.192,0,0,0,.19-1.653,4.986,4.986,0,0,1,.3-1.969,20.363,20.363,0,0,0,.4-3.136,3.391,3.391,0,0,1,.257-1.473,1.385,1.385,0,0,0,.008-.472" fill="#000"/><path d="M1.391,170.062h2.1v2.912c0,.291-.032.582-.049,1.019h.033a1.807,1.807,0,0,1,1.876-1.165c1.36.033,2.136.728,2.184,3.236v3.3c-.048,1.457-.4,3.074-2.184,3.074a2.009,2.009,0,0,1-1.925-1.213H3.4v.971H1.391Zm2.1,9.141c0,1.052.34,1.617,1.019,1.618.647,0,.874-.7.923-1.569v-3.043c-.065-.9.031-1.763-.955-1.763s-1.019,1.295-.987,2.023Z" fill="#000"/><path d="M10.743,173.071l.922,4.837c.145.81.226,1.619.308,2.427h.032a22.766,22.766,0,0,1,.324-2.362l.921-4.9h2.136l-2.216,9.255c-.534,2.071-.583,3.365-3.495,2.944v-1.634c.34,0,1.246.178,1.246-.4a5.916,5.916,0,0,0-.194-1.166l-2.2-8.995Z" fill="#000"/><path d="M22.084,182.2l2.9-12.134h3.058L30.789,182.2H28.362l-.6-3.074H25.11l-.6,3.074Zm3.382-4.854h1.941l-.615-3.446c-.113-.566-.161-1.117-.226-1.682-.016-.275-.049-.55-.081-.81h-.032c-.033.26-.065.535-.081.81-.065.565-.114,1.116-.227,1.682Z" fill="#000"/><rect width="2.103" height="12.134" transform="translate(32.131 170.062)" fill="#000"/><rect width="2.103" height="12.134" transform="translate(36.629 170.062)" fill="#000"/><path d="M43.263,176.97V182.2H41V170.062h4.288c1.958,0,3.445.679,3.445,2.912,0,1.327-.34,2.718-1.86,2.928v.032c1.342.179,1.748,1.036,1.748,2.2,0,.5-.066,3.479.485,3.835v.226H46.611a12.206,12.206,0,0,1-.243-3.074c-.016-.745,0-1.764-.777-1.99a6.931,6.931,0,0,0-1.924-.162Zm0-1.78h1.779c.744-.049,1.326-.533,1.326-1.747,0-1.359-.566-1.585-1.424-1.6H43.263Z" fill="#000"/><path d="M51.012,171.972v-1.91h2.1v1.91Zm0,10.224v-9.125h2.1V182.2Z" fill="#000"/><path d="M57.371,183.215a.44.44,0,0,0,.243.4,1.281,1.281,0,0,0,.647.13c.889,0,1.051-.712,1.051-1.424v-1.052l-.032-.032a1.969,1.969,0,0,1-1.926,1.2c-1.779,0-2.135-1.6-2.184-3.057v-3.3c.049-2.508.825-3.22,2.184-3.252a1.679,1.679,0,0,1,1.829,1.181h.032v-.939h2.1v8.85c0,1.86-.518,3.349-3.4,3.349-1.392,0-2.54-.517-2.654-2.055Zm.857-8.769c-.987,0-.89.858-.954,1.764v3.042c.048.873.275,1.569.922,1.569.68,0,1.019-.566,1.019-1.618v-2.734c.032-.728,0-2.023-.987-2.023" fill="#000"/><path d="M63.389,182.2V170.062h2.1v3.948h.033a2.067,2.067,0,0,1,1.893-1.182,1.99,1.99,0,0,1,2.1,2.33V182.2h-2.1v-6.245c0-.889-.1-1.473-.89-1.505s-1.068.712-1.036,1.684V182.2Z" fill="#000"/><path d="M74.568,182.229c-1.245.145-2.993.259-2.993-1.44v-6.18h-.857v-1.538h.841v-2.507h2.12v2.506h.889v1.538h-.889v5.663c.048.387.63.34.889.307Z" fill="#000"/><path d="M77.562,179.187c-.162,1.682.485,1.634.97,1.634a.813.813,0,0,0,.874-1.019c-.032-.519-.631-.81-1.035-1.085l-1.149-.793a3.357,3.357,0,0,1-1.731-2.879c0-1.407,1.117-2.217,3.139-2.217,2.038,0,2.977,1.068,2.928,3.025h-2.1c.049-1.019-.243-1.407-.971-1.407-.5,0-.89.227-.89.744,0,.535.389.777.793,1.052l1.715,1.165a3.266,3.266,0,0,1,1.44,1.8c.178,1.585-.211,3.235-3.123,3.235a2.727,2.727,0,0,1-2.96-3.251Z" fill="#000"/><path d="M85.506,176.971V182.2H83.241V170.063h4.287c1.958,0,3.446.679,3.446,2.912,0,1.327-.34,2.718-1.86,2.928v.032c1.342.179,1.747,1.036,1.747,2.2,0,.5-.065,3.479.485,3.835v.226H88.855a12.206,12.206,0,0,1-.243-3.074c-.016-.745,0-1.764-.777-1.99a6.936,6.936,0,0,0-1.925-.162Zm0-1.78h1.779c.745-.049,1.327-.533,1.327-1.747,0-1.359-.566-1.585-1.424-1.6H85.506Z" fill="#000"/><path d="M92.915,176.209c-.1-2.15,1-3.381,3.074-3.381,2.928,0,3.236,1.522,3.236,4.013v1.23H95.019V179.4c.016,1.2.469,1.424,1.1,1.424.777,0,1-.566.972-1.715h2.1c.08,2.038-.761,3.332-2.912,3.332-2.427,0-3.414-1.148-3.366-3.834Zm4.207.244v-.793c-.016-.922-.259-1.214-1.1-1.214-1.052,0-1,.809-1,1.635v.372Z" fill="#000"/><path d="M102.72,179.188c-.162,1.682.485,1.634.97,1.634a.813.813,0,0,0,.874-1.019c-.032-.519-.631-.81-1.035-1.085l-1.149-.793a3.357,3.357,0,0,1-1.731-2.879c0-1.407,1.117-2.217,3.139-2.217,2.038,0,2.977,1.068,2.928,3.025h-2.1c.049-1.019-.242-1.407-.971-1.407-.5,0-.89.227-.89.744,0,.535.389.777.793,1.052l1.715,1.165a3.266,3.266,0,0,1,1.44,1.8c.178,1.585-.211,3.235-3.123,3.235a2.727,2.727,0,0,1-2.96-3.251Z" fill="#000"/><path d="M108.188,176.209c-.1-2.15,1-3.381,3.074-3.381,2.928,0,3.236,1.522,3.236,4.013v1.23h-4.206V179.4c.016,1.2.469,1.424,1.1,1.424.777,0,1-.566.972-1.715h2.1c.08,2.038-.761,3.332-2.912,3.332-2.427,0-3.414-1.148-3.366-3.834Zm4.207.244v-.793c-.016-.922-.259-1.214-1.1-1.214-1.052,0-1,.809-1,1.635v.372Z" fill="#000"/><path d="M118.414,174.69h.032a3.025,3.025,0,0,1,.825-1.294,1.809,1.809,0,0,1,1.311-.486V175.4c-1.165-.114-2.055.177-2.087,1.52V182.2h-2.1v-9.126h2.023Z" fill="#000"/><path d="M121.258,173.071h2.265l.89,5.113a23.489,23.489,0,0,1,.291,2.7h.032a23.75,23.75,0,0,1,.292-2.7l.906-5.113h2.183l-2.1,9.125h-2.621Z" fill="#000"/><path d="M129.137,176.21c-.1-2.15,1-3.381,3.074-3.381,2.928,0,3.236,1.522,3.236,4.013v1.23h-4.206V179.4c.016,1.2.469,1.424,1.1,1.424.777,0,1-.566.972-1.715h2.1c.08,2.038-.761,3.332-2.912,3.332-2.427,0-3.414-1.148-3.366-3.834Zm4.207.244v-.793c-.016-.922-.259-1.214-1.1-1.214-1.052,0-1,.809-1,1.635v.372Z" fill="#000"/><path d="M141.271,181.226h-.032a1.83,1.83,0,0,1-1.813,1.213c-1.779,0-2.151-1.617-2.2-3.074v-3.3c.049-2.508.841-3.2,2.2-3.236a1.808,1.808,0,0,1,1.877,1.165h.032a4.589,4.589,0,0,1-.064-.809v-3.122h2.1V182.2h-2.1Zm0-4.756c.032-.728,0-2.023-.987-2.023s-.89.858-.955,1.763v3.043c.049.873.275,1.569.923,1.569.679,0,1.019-.566,1.019-1.618Z" fill="#000"/><path d="M149.6,182.2V170.063h2.265v10.354h4.206v1.78Z" fill="#000"/><path d="M160.67,182.229c-1.245.145-2.993.259-2.993-1.44v-6.18h-.857v-1.538h.841v-2.507h2.12v2.507h.889v1.538h-.889v5.663c.048.387.63.34.889.307Z" fill="#000"/><path d="M165.993,181.226h-.032a1.831,1.831,0,0,1-1.813,1.213c-1.779,0-2.151-1.617-2.2-3.074v-3.3c.049-2.508.841-3.2,2.2-3.236a1.808,1.808,0,0,1,1.877,1.165h.032a4.589,4.589,0,0,1-.064-.809v-3.122h2.1V182.2h-2.1Zm0-4.756c.032-.728,0-2.023-.987-2.023s-.89.858-.955,1.763v3.043c.049.873.275,1.569.922,1.569.68,0,1.02-.566,1.02-1.618Z" fill="#000"/><rect width="2.135" height="2.136" transform="translate(170.815 180.061)" fill="#000"/></g></svg>