<svg xmlns="http://www.w3.org/2000/svg" width="90.195" height="91.13" viewBox="0 0 90.195 91.13"><g transform="translate(-207.349 0.001)"><path d="M92.348,91.13C83.17,91,65.925,85.226,65.925,64.251V25.376C66.306,16.485,71.8.019,89.91.019H130c.2-.019,11.3-.623,19.029,6.63,4.705,4.419,7.092,10.618,7.092,18.422V62.417c-.123,8.618-4.686,25.6-21.067,28.64ZM130.7,8.647c-.283,0-.443.009-.453.009L89.91,8.662c-14.446,0-15.317,16.21-15.346,16.9l0,38.689c0,17.786,17.11,18.227,17.84,18.236h41.86c12.7-2.431,13.194-19.422,13.207-20.145V25.071c0-5.3-1.453-9.36-4.325-12.081-4.274-4.051-10.694-4.344-12.446-4.344" transform="translate(141.424 0)" fill="#000"/><path d="M96.235,53.522a23.349,23.349,0,1,1,23.35-23.35,23.374,23.374,0,0,1-23.35,23.35m0-37.557a14.209,14.209,0,1,0,14.21,14.207,14.224,14.224,0,0,0-14.21-14.207" transform="translate(156.361 14.641)" fill="#000"/><path d="M97.338,10.354A5.556,5.556,0,1,1,91.784,4.8a5.556,5.556,0,0,1,5.554,5.554" transform="translate(184.974 10.297)" fill="#000"/></g></svg>