<svg xmlns="http://www.w3.org/2000/svg" width="96.882" height="79.358" viewBox="0 0 96.882 79.358"><path d="M154.485,64.04c-9.14-.871-15.254-5.378-18.639-13.933a20.087,20.087,0,0,0,8.542-.425,20.627,20.627,0,0,1-12.6-9.231,18.706,18.706,0,0,1-2.843-10.581,20.317,20.317,0,0,0,8.832,2.334,20.21,20.21,0,0,1-8.262-12.219A19.97,19.97,0,0,1,131.7,5.546c10.832,12.726,24.489,19.752,41.246,20.941-.129-1.123-.255-2.117-.355-3.114-1.022-10.3,7.108-20.249,17.39-21.359A20.163,20.163,0,0,1,206.674,7.6a1.712,1.712,0,0,0,1.308.362,37.9,37.9,0,0,0,10.75-3.976c.318-.17.635-.337,1.161-.613a20.315,20.315,0,0,1-8.4,10.816c.06.126.116.252.176.374,3.529-.959,7.055-1.922,10.628-2.894-.186.277-.4.626-.638.956a38.422,38.422,0,0,1-8.206,8.338,1.871,1.871,0,0,0-.821,1.733c-.057,19.881-7.769,36.066-23.652,48.109-8.03,6.086-17.289,9.2-27.3,10.143A57.121,57.121,0,0,1,126.8,73.391a9.466,9.466,0,0,1-1.381-.962,41.237,41.237,0,0,0,29.068-8.388" transform="translate(-125.417 -1.872)" fill="#000"/></svg>